<svg id="Layer_1" data-name="Layer 1" xmlns="http://www.w3.org/2000/svg" viewBox="0 0 20.09 17.27"><defs><style>.cls-1{fill:#626067;}.cls-2{fill:#fff;}</style></defs><polygon class="cls-1" points="19.13 0 19.13 0.48 19.62 0.48 19.62 0.95 20.09 0.95 20.09 16.31 19.62 16.32 19.62 16.78 19.13 16.78 19.13 17.27 0.96 17.27 0.96 16.78 0.47 16.78 0.47 16.31 0 16.31 0 0.95 0.48 0.95 0.48 0.48 0.96 0.48 0.96 0 19.13 0"/><polygon class="cls-2" points="4.18 2.48 6.9 2.48 6.9 3.77 8.25 3.77 8.25 5.19 9.53 5.19 9.53 6.55 10.8 6.55 10.8 5.19 12.16 5.2 12.16 3.75 13.45 3.75 13.45 2.48 16.16 2.48 16.16 5.21 14.89 5.2 14.89 6.55 13.45 6.55 13.45 7.84 12.17 7.84 12.17 9.12 13.45 9.12 13.45 10.47 14.88 10.47 14.89 11.74 16.16 11.74 16.16 14.47 13.44 14.47 13.44 13.19 12.16 13.19 12.16 11.76 10.81 11.75 10.81 10.47 9.53 10.48 9.53 11.75 8.26 11.76 8.25 13.19 6.9 13.19 6.89 14.47 4.18 14.47 4.18 11.75 5.44 11.75 5.45 10.47 6.88 10.47 6.89 9.12 8.24 9.11 8.24 7.83 6.9 7.84 6.89 6.56 5.46 6.56 5.46 5.2 4.18 5.19 4.18 2.48"/></svg>