<svg id="Layer_1" data-name="Layer 1" xmlns="http://www.w3.org/2000/svg" viewBox="0 0 20.09 17.27"><defs><style>.cls-1{fill:#626067;}.cls-2{fill:#fff;}</style></defs><polygon class="cls-1" points="19.13 0 19.13 0.48 19.62 0.48 19.62 0.95 20.09 0.95 20.09 16.31 19.62 16.32 19.62 16.78 19.13 16.78 19.13 17.27 0.96 17.27 0.96 16.78 0.47 16.78 0.47 16.31 0 16.31 0 0.95 0.48 0.95 0.48 0.48 0.96 0.48 0.96 0 19.13 0"/><polygon class="cls-2" points="8.14 2.84 8.61 2.84 8.61 3.32 9.08 3.32 9.08 4.26 9.58 4.26 9.58 4.72 10.05 4.72 10.05 5.21 10.52 5.21 10.52 5.68 11.01 5.68 11.01 6.39 10.52 6.39 10.52 6.86 10.05 6.86 10.05 7.33 9.57 7.33 9.57 7.81 9.09 7.81 9.09 8.75 8.61 8.75 8.61 9.23 8.14 9.23 8.14 7.1 5.74 7.1 5.74 12.05 14.59 12.05 14.59 7.1 12.92 7.1 12.92 5.2 15.31 5.21 15.31 5.67 15.79 5.68 15.79 6.14 16.03 6.14 16.03 12.54 15.55 12.54 15.55 13.01 15.08 13.01 15.08 13.47 5.26 13.47 5.26 13.01 4.79 13.01 4.79 12.54 4.31 12.54 4.31 6.14 4.78 6.14 4.78 5.68 5.26 5.68 5.26 5.21 8.13 5.21 8.14 2.84"/></svg>